# xmcd CD database file
#
# Track frame offsets:
#	150
#	19587
#	39975
#
# Disc length: 782 seconds
#
# Revision: 0
# Processed by: cddbd v1.5.1PL0 Copyright (c) Steve Scherf et al.
# Submitted via: CDex 1.51
#
DISCID=16030c03
DTITLE=HOME MADE 家族 - アイコトバ
DYEAR=1900
DGENRE=J-POP
TTITLE0=アイコトバ
TTITLE1=ヒーロー
TTITLE2=HOME PARTY
EXTD=
EXTT0=
EXTT1=
EXTT2=
PLAYORDER=
